<svg width="147" height="59" viewBox="0 0 140 36" fill="none" xmlns="http://www.w3.org/2000/svg">
<path d="M0.512 35V1.4H6.752V29.72H24.32V35H0.512ZM44.381 35.48C41.757 35.48 39.341 35.048 37.133 34.184C34.925 33.32 33.005 32.12 31.373 30.584C29.741 29.016 28.477 27.192 27.581 25.112C26.685 23 26.237 20.696 26.237 18.2C26.237 15.704 26.685 13.416 27.581 11.336C28.477 9.224 29.741 7.4 31.373 5.864C33.005 4.296 34.925 3.08 37.133 2.216C39.341 1.352 41.741 0.919998 44.333 0.919998C46.957 0.919998 49.357 1.352 51.533 2.216C53.741 3.08 55.661 4.296 57.293 5.864C58.925 7.4 60.189 9.224 61.085 11.336C61.981 13.416 62.429 15.704 62.429 18.2C62.429 20.696 61.981 23 61.085 25.112C60.189 27.224 58.925 29.048 57.293 30.584C55.661 32.12 53.741 33.32 51.533 34.184C49.357 35.048 46.973 35.48 44.381 35.48ZM44.333 30.008C46.029 30.008 47.597 29.72 49.037 29.144C50.477 28.568 51.725 27.752 52.781 26.696C53.837 25.608 54.653 24.36 55.229 22.952C55.837 21.512 56.141 19.928 56.141 18.2C56.141 16.472 55.837 14.904 55.229 13.496C54.653 12.056 53.837 10.808 52.781 9.752C51.725 8.664 50.477 7.832 49.037 7.256C47.597 6.68 46.029 6.392 44.333 6.392C42.637 6.392 41.069 6.68 39.629 7.256C38.221 7.832 36.973 8.664 35.885 9.752C34.829 10.808 33.997 12.056 33.389 13.496C32.813 14.904 32.525 16.472 32.525 18.2C32.525 19.896 32.813 21.464 33.389 22.904C33.997 24.344 34.829 25.608 35.885 26.696C36.941 27.752 38.189 28.568 39.629 29.144C41.069 29.72 42.637 30.008 44.333 30.008ZM84.7393 35.48C82.1153 35.48 79.6993 35.064 77.4913 34.232C75.3153 33.368 73.4113 32.168 71.7793 30.632C70.1473 29.064 68.8833 27.224 67.9873 25.112C67.0913 23 66.6433 20.696 66.6433 18.2C66.6433 15.704 67.0913 13.4 67.9873 11.288C68.8833 9.176 70.1473 7.352 71.7793 5.816C73.4433 4.248 75.3793 3.048 77.5873 2.216C79.7953 1.352 82.2113 0.919998 84.8353 0.919998C87.6833 0.919998 90.2433 1.384 92.5153 2.312C94.8193 3.24 96.7553 4.6 98.3233 6.392L94.3873 10.232C93.0753 8.92 91.6513 7.96 90.1153 7.352C88.6113 6.712 86.9473 6.392 85.1233 6.392C83.3633 6.392 81.7313 6.68 80.2273 7.256C78.7233 7.832 77.4273 8.648 76.3393 9.704C75.2513 10.76 74.4033 12.008 73.7953 13.448C73.2193 14.888 72.9313 16.472 72.9313 18.2C72.9313 19.896 73.2193 21.464 73.7953 22.904C74.4033 24.344 75.2513 25.608 76.3393 26.696C77.4273 27.752 78.7073 28.568 80.1793 29.144C81.6513 29.72 83.2833 30.008 85.0753 30.008C86.7393 30.008 88.3393 29.752 89.8752 29.24C91.4433 28.696 92.9313 27.8 94.3393 26.552L97.8913 31.208C96.1313 32.616 94.0833 33.688 91.7473 34.424C89.4433 35.128 87.1073 35.48 84.7393 35.48ZM91.9873 30.392V17.816H97.8913V31.208L91.9873 30.392ZM121.865 35.48C119.241 35.48 116.825 35.048 114.617 34.184C112.409 33.32 110.489 32.12 108.857 30.584C107.225 29.016 105.961 27.192 105.065 25.112C104.169 23 103.721 20.696 103.721 18.2C103.721 15.704 104.169 13.416 105.065 11.336C105.961 9.224 107.225 7.4 108.857 5.864C110.489 4.296 112.409 3.08 114.617 2.216C116.825 1.352 119.225 0.919998 121.817 0.919998C124.441 0.919998 126.841 1.352 129.017 2.216C131.225 3.08 133.145 4.296 134.777 5.864C136.409 7.4 137.673 9.224 138.569 11.336C139.465 13.416 139.913 15.704 139.913 18.2C139.913 20.696 139.465 23 138.569 25.112C137.673 27.224 136.409 29.048 134.777 30.584C133.145 32.12 131.225 33.32 129.017 34.184C126.841 35.048 124.457 35.48 121.865 35.48ZM121.817 30.008C123.513 30.008 125.081 29.72 126.521 29.144C127.961 28.568 129.209 27.752 130.265 26.696C131.321 25.608 132.137 24.36 132.713 22.952C133.321 21.512 133.625 19.928 133.625 18.2C133.625 16.472 133.321 14.904 132.713 13.496C132.137 12.056 131.321 10.808 130.265 9.752C129.209 8.664 127.961 7.832 126.521 7.256C125.081 6.68 123.513 6.392 121.817 6.392C120.121 6.392 118.553 6.68 117.113 7.256C115.705 7.832 114.457 8.664 113.369 9.752C112.313 10.808 111.481 12.056 110.873 13.496C110.297 14.904 110.009 16.472 110.009 18.2C110.009 19.896 110.297 21.464 110.873 22.904C111.481 24.344 112.313 25.608 113.369 26.696C114.425 27.752 115.673 28.568 117.113 29.144C118.553 29.72 120.121 30.008 121.817 30.008Z" fill="black"/>
</svg>