<svg width="140" height="35" viewBox="0 0 140 35" fill="none" xmlns="http://www.w3.org/2000/svg">
<path d="M0.512 34.1328V0.53281H6.752V28.8528H24.32V34.1328H0.512ZM44.381 34.6128C41.757 34.6128 39.341 34.1808 37.133 33.3168C34.925 32.4528 33.005 31.2528 31.373 29.7168C29.741 28.1488 28.477 26.3248 27.581 24.2448C26.685 22.1328 26.237 19.8288 26.237 17.3328C26.237 14.8368 26.685 12.5488 27.581 10.4688C28.477 8.35681 29.741 6.53281 31.373 4.99681C33.005 3.42881 34.925 2.21281 37.133 1.34881C39.341 0.484811 41.741 0.0528107 44.333 0.0528107C46.957 0.0528107 49.357 0.484811 51.533 1.34881C53.741 2.21281 55.661 3.42881 57.293 4.99681C58.925 6.53281 60.189 8.35681 61.085 10.4688C61.981 12.5488 62.429 14.8368 62.429 17.3328C62.429 19.8288 61.981 22.1328 61.085 24.2448C60.189 26.3568 58.925 28.1808 57.293 29.7168C55.661 31.2528 53.741 32.4528 51.533 33.3168C49.357 34.1808 46.973 34.6128 44.381 34.6128ZM44.333 29.1408C46.029 29.1408 47.597 28.8528 49.037 28.2768C50.477 27.7008 51.725 26.8848 52.781 25.8288C53.837 24.7408 54.653 23.4928 55.229 22.0848C55.837 20.6448 56.141 19.0608 56.141 17.3328C56.141 15.6048 55.837 14.0368 55.229 12.6288C54.653 11.1888 53.837 9.94081 52.781 8.88481C51.725 7.79681 50.477 6.96481 49.037 6.38881C47.597 5.81281 46.029 5.52481 44.333 5.52481C42.637 5.52481 41.069 5.81281 39.629 6.38881C38.221 6.96481 36.973 7.79681 35.885 8.88481C34.829 9.94081 33.997 11.1888 33.389 12.6288C32.813 14.0368 32.525 15.6048 32.525 17.3328C32.525 19.0288 32.813 20.5968 33.389 22.0368C33.997 23.4768 34.829 24.7408 35.885 25.8288C36.941 26.8848 38.189 27.7008 39.629 28.2768C41.069 28.8528 42.637 29.1408 44.333 29.1408ZM84.7393 34.6128C82.1153 34.6128 79.6993 34.1968 77.4913 33.3648C75.3153 32.5008 73.4113 31.3008 71.7793 29.7648C70.1473 28.1968 68.8833 26.3568 67.9873 24.2448C67.0913 22.1328 66.6433 19.8288 66.6433 17.3328C66.6433 14.8368 67.0913 12.5328 67.9873 10.4208C68.8833 8.30881 70.1473 6.48481 71.7793 4.94881C73.4433 3.38081 75.3793 2.18081 77.5873 1.34881C79.7953 0.484811 82.2113 0.0528107 84.8353 0.0528107C87.6833 0.0528107 90.2433 0.51681 92.5153 1.44481C94.8193 2.37281 96.7553 3.73281 98.3233 5.52481L94.3873 9.36481C93.0753 8.05281 91.6513 7.09281 90.1153 6.48481C88.6113 5.84481 86.9473 5.52481 85.1233 5.52481C83.3633 5.52481 81.7313 5.81281 80.2273 6.38881C78.7233 6.96481 77.4273 7.78081 76.3393 8.83681C75.2513 9.89281 74.4033 11.1408 73.7953 12.5808C73.2193 14.0208 72.9313 15.6048 72.9313 17.3328C72.9313 19.0288 73.2193 20.5968 73.7953 22.0368C74.4033 23.4768 75.2513 24.7408 76.3393 25.8288C77.4273 26.8848 78.7073 27.7008 80.1793 28.2768C81.6513 28.8528 83.2833 29.1408 85.0753 29.1408C86.7393 29.1408 88.3393 28.8848 89.8752 28.3728C91.4433 27.8288 92.9313 26.9328 94.3393 25.6848L97.8913 30.3408C96.1313 31.7488 94.0833 32.8208 91.7473 33.5568C89.4433 34.2608 87.1073 34.6128 84.7393 34.6128ZM91.9873 29.5248V16.9488H97.8913V30.3408L91.9873 29.5248ZM121.865 34.6128C119.241 34.6128 116.825 34.1808 114.617 33.3168C112.409 32.4528 110.489 31.2528 108.857 29.7168C107.225 28.1488 105.961 26.3248 105.065 24.2448C104.169 22.1328 103.721 19.8288 103.721 17.3328C103.721 14.8368 104.169 12.5488 105.065 10.4688C105.961 8.35681 107.225 6.53281 108.857 4.99681C110.489 3.42881 112.409 2.21281 114.617 1.34881C116.825 0.484811 119.225 0.0528107 121.817 0.0528107C124.441 0.0528107 126.841 0.484811 129.017 1.34881C131.225 2.21281 133.145 3.42881 134.777 4.99681C136.409 6.53281 137.673 8.35681 138.569 10.4688C139.465 12.5488 139.913 14.8368 139.913 17.3328C139.913 19.8288 139.465 22.1328 138.569 24.2448C137.673 26.3568 136.409 28.1808 134.777 29.7168C133.145 31.2528 131.225 32.4528 129.017 33.3168C126.841 34.1808 124.457 34.6128 121.865 34.6128ZM121.817 29.1408C123.513 29.1408 125.081 28.8528 126.521 28.2768C127.961 27.7008 129.209 26.8848 130.265 25.8288C131.321 24.7408 132.137 23.4928 132.713 22.0848C133.321 20.6448 133.625 19.0608 133.625 17.3328C133.625 15.6048 133.321 14.0368 132.713 12.6288C132.137 11.1888 131.321 9.94081 130.265 8.88481C129.209 7.79681 127.961 6.96481 126.521 6.38881C125.081 5.81281 123.513 5.52481 121.817 5.52481C120.121 5.52481 118.553 5.81281 117.113 6.38881C115.705 6.96481 114.457 7.79681 113.369 8.88481C112.313 9.94081 111.481 11.1888 110.873 12.6288C110.297 14.0368 110.009 15.6048 110.009 17.3328C110.009 19.0288 110.297 20.5968 110.873 22.0368C111.481 23.4768 112.313 24.7408 113.369 25.8288C114.425 26.8848 115.673 27.7008 117.113 28.2768C118.553 28.8528 120.121 29.1408 121.817 29.1408Z" fill="white"/>
</svg>
